<svg version="1.2" xmlns="http://www.w3.org/2000/svg" viewBox="0 0 600 282" width="600" height="282"><style>.a{fill:#676c70}.b{fill:#80cc28}</style><path class="a" d="m0.4 9.8h51.5v263.8h-51.5z"/><path class="a" d="m552.1 9.8v158c-8.6-9.6-150.1-166.8-150.1-166.8h-7.9v272.6h47.9v-155.9c8.7 9.6 149.8 164.7 149.8 164.7h8.2v-272.6z"/><path class="a" d="m285.3 197.3l-2.7-0.1v27.5c-17.2 6.5-30.3 9.1-46.2 9.1-56.3 0-92.7-37.8-92.7-96.1 0-55.5 34.3-89.9 89.4-89.9 31.2 0 56.9 11.5 76.5 34.3l4.2 4.9 3.8-60-1.1-0.9c-8.3-6-12.2-8-22.2-12.4-20.6-9-38.2-12.7-60.4-12.7-40.1 0-76.3 13.9-101.9 39.3-25.6 25.3-39.7 61.1-39.7 100.7 0 81.9 58.3 141.4 138.6 141.4 20.2 0 42.9-3.5 62.4-9.7 13.7-4.1 21.3-7.3 38.9-15.9l1.5-0.7v-66.8l-3.6 1.3c-14 5-29.1 7.3-44.8 6.7z"/><path class="b" d="m275.2 112.7c-0.1-0.1-0.3-0.1-0.4-0.2-32.8-8.5-66.1-3.6-90.8 12.7 13.7 26.1 40.4 46.4 73.1 54.9 0.1 0 0.3 0.1 0.3 0.1 32.8 8.5 66.1 3.6 90.7-12.6-13.6-26.1-40.2-46.5-72.9-54.9z"/><path class="a" d="m52.6 381.9q0 2.2-1.4 3.7-1.6 1.6-4.3 1.6-2.5 0-3.9-1.2-0.6-0.6-2.1-3.2l-16.3-27.7v31.6h-6.7v-33.6q0-5.7 5.7-5.7 2.6 0 3.9 1.2 0.8 0.6 2.2 3.1l16.2 27.7v-31.7h6.7z"/><path class="a" d="m93.5 353.1h-18q-4.4 0-5.4 1.8-0.7 1.1-0.7 5 0 2 1.7 3.1 1.3 1 4.4 1h7.5q4.7-0.1 7.6 2.1 2.8 2.1 2.8 5.9v6.2q0 4.1-2.9 6.2-2.9 2.2-8 2.2h-20v-5.7h17.9q4.5 0 5.6-2 0.5-1 0.5-5.3 0-4-5.8-4h-7.5q-4.6 0-7.6-2-3.2-2.1-3.2-5.9v-6.1q0-4.1 3.5-6.5 2.5-1.7 7.2-1.7h20.4z"/><path class="a" d="m132.6 353h-12v33.6h-7v-33.6h-11.9v-5.8h30.9z"/><path class="a" d="m140.1 347.2h7v39.4h-7z"/><path class="a" d="m185.5 353h-12v33.6h-7v-33.6h-11.9v-5.8h30.9z"/><path class="a" d="m227.6 376.7q0 2.7-0.5 4.1-0.7 1.9-2.6 3.5-1.9 1.5-4 2-1.4 0.3-4.7 0.3h-11q-3.2 0-4.7-0.4-2.3-0.4-4-1.9-2.1-1.7-2.7-3.5-0.4-1.3-0.4-4.1v-29.3h7v28.2q0 3.1 1.4 4.2 1.5 1.1 5.3 1h7.2q3.7 0.1 5.2-1 1.5-1 1.5-4v-28.4h7z"/><path class="a" d="m266 353h-12v33.6h-7v-33.6h-11.9v-5.8h30.9z"/><path class="a" d="m325.5 381.9q0 2.2-1.4 3.7-1.6 1.6-4.3 1.6-2.5 0-3.8-1.2-0.6-0.6-2.2-3.2l-16.3-27.7v31.6h-6.7v-33.6q0-5.7 5.7-5.7 2.6 0 4 1.2 0.7 0.6 2.2 3.1l16.1 27.7v-31.7h6.7z"/><path fill-rule="evenodd" class="a" d="m374.9 386.6h-7.5l-4.2-9.6h-19l-4.2 9.6h-7.5l15.6-35.7q1.6-3.5 5.6-3.5 4 0 5.6 3.5zm-13.9-14.9l-7.7-17.5-6.9 17.5z"/><path class="a" d="m405.8 353h-12v33.6h-7v-33.6h-11.9v-5.8h30.9z"/><path class="a" d="m413.3 347.2h7v39.4h-7z"/><path fill-rule="evenodd" class="a" d="m464.9 377.7q0 8.9-11.5 8.9h-10.6q-5.6 0-8.3-2-3.4-2.3-3.4-6.8v-21.5q0-4.4 3.4-6.9 2.7-2 8.3-2h10.7q11.4 0 11.4 8.9zm-6.9-1.4v-18.2q0-2.8-1.4-3.9-1.5-1.1-4.8-1.1h-7.4q-3.4 0-4.8 1.1-1.4 1.1-1.4 3.9v18.1q0 2.4 1.5 3.7 1.3 1 4.7 1h7.4q3.2 0 4.7-1 1.5-1 1.5-3.6z"/><path class="a" d="m510.6 381.9q0 2.2-1.4 3.7-1.6 1.6-4.3 1.6-2.5 0-3.9-1.2-0.6-0.6-2.1-3.2l-16.3-27.7v31.6h-6.7v-33.6q0-5.7 5.7-5.7 2.6 0 3.9 1.2 0.8 0.6 2.2 3.1l16.2 27.7v-31.7h6.7z"/><path fill-rule="evenodd" class="a" d="m560 386.6h-7.5l-4.2-9.6h-19.1l-4.1 9.6h-7.6l15.7-35.7q1.6-3.5 5.6-3.5 4 0 5.5 3.5zm-13.9-14.9l-7.6-17.5-7 17.5z"/><path class="a" d="m598.2 386.6h-18.6q-6.1 0-9.4-2.1-3.3-2.1-3.3-7.3v-29.9h7v28.5q0 3 1.7 4.2 1.3 0.9 5.6 0.9h17z"/><path fill-rule="evenodd" class="a" d="m34.9 469.1q0 4.1-2.7 6.5-2.7 2.5-7.7 2.5h-24.5v-39.3h24.3q10.6 0 10.6 8.8zm-6.9-1.9v-18.1q0-4.7-5.8-4.7h-15.2v28h15.2q5.8 0 5.8-5.2z"/><path class="a" d="m76 461.3h-22.9v6.6q0 4.4 6.2 4.4h18.1v5.8h-20q-5.2-0.1-8.1-2-3.2-2.3-3.2-6.4v-22.1q0-4 2.8-6.4 2.9-2.3 7.8-2.3h20.7v5.7h-18.2q-6.1 0-6.1 4.4v6.7h22.9z"/><path class="a" d="m146.4 478.1h-18.6q-6.1-0.1-9.4-2.1-3.3-2.1-3.3-7.4v-29.8h7v28.5q0 3 1.7 4.2 1.3 0.9 5.6 0.9h17z"/><path class="a" d="m152.8 437.3q0 1.2-0.4 2.3l-3.1 7.2h-3.7l2.5-6.2q-2-2.2-2-3.6 0-1.7 1-2.8 1-1.2 2.4-1.2 1.4 0 2.4 1.2 0.9 1.3 0.9 3.1z"/><path class="a" d="m165.8 438.7h7v39.4h-7z"/><path class="a" d="m218.8 473.3q0 2.3-1.5 3.7-1.6 1.7-4.2 1.7-2.5 0-3.9-1.3-0.6-0.5-2.1-3.2l-16.4-27.6v31.5h-6.7v-33.5q0-5.8 5.8-5.8 2.6 0 3.9 1.2 0.8 0.7 2.2 3.2l16.2 27.6v-31.6h6.7z"/><path class="a" d="m261.4 461.3h-24.4v16.7h-7v-31.1q0-3.8 3.3-6.2 2.6-1.8 7.7-1.8h20.4v5.7h-18.5q-5.9 0-5.9 4.1v7h24.4z"/><path fill-rule="evenodd" class="a" d="m307.4 469.1q0 8.9-11.5 8.9h-10.6q-5.6 0-8.3-1.9-3.3-2.4-3.3-6.9v-21.4q0-4.5 3.4-6.9 2.6-2.1 8.2-2.1h10.7q11.4 0 11.4 9zm-6.9-1.4v-18.3q0-2.7-1.4-3.8-1.5-1.1-4.8-1.1h-7.3q-3.4 0-4.9 1.1-1.4 1.1-1.4 3.8v18.1q0 2.5 1.6 3.8 1.3 1 4.7 1h7.3q3.3 0 4.8-1 1.4-1.1 1.4-3.6z"/><path class="a" d="m353.1 478.1h-8.7l-17.2-15.1q-0.8-0.8-0.8-2.5 0-3.3 4.3-3.3h10.2q5.2-0.1 5.2-4v-4.5q0-4.1-5.8-4.1h-14.5v33.5h-7v-39.2h23.5q10.8 0 10.8 8.3v6.8q0 3.7-2.8 5.9-2.8 2.2-7.3 2.2h-8.1z"/><path class="a" d="m411.6 478.2h-6.7v-30.8l-12.4 27.5q-1.8 4-5 4-2 0-3.2-1.2-0.7-0.7-1.6-2.6l-12.6-27.7v30.8h-6.7v-34.1q0-2.3 1.6-3.7 1.6-1.5 4.4-1.5 4.2 0 5.8 3.7l12.2 27.8 12.4-27.9q1.7-3.7 5.8-3.7 2.9 0 4.4 1.5 1.6 1.6 1.6 3.9z"/><path fill-rule="evenodd" class="a" d="m461.3 478.1h-7.5l-4.1-9.7h-19.1l-4.2 9.7h-7.5l15.7-35.7q1.5-3.5 5.5-3.5 4 0 5.6 3.5zm-13.9-15l-7.7-17.4-6.9 17.4z"/><path class="a" d="m492.6 444.4h-12v33.7h-7v-33.7h-12v-5.7h31z"/><path class="a" d="m500.4 438.7h7v39.4h-7z"/><path fill-rule="evenodd" class="a" d="m552.4 469.1q0 8.9-11.5 8.9h-10.6q-5.6 0-8.3-1.9-3.4-2.4-3.4-6.9v-21.4q0-4.5 3.4-6.9 2.7-2.1 8.3-2.1h10.7q11.4 0 11.4 9zm-6.9-1.4v-18.3q0-2.7-1.4-3.8-1.5-1.1-4.8-1.1h-7.4q-3.4 0-4.8 1.1-1.4 1.1-1.5 3.8v18.1q0.1 2.5 1.6 3.8 1.3 1 4.7 1h7.4q3.2 0 4.7-1 1.5-1.1 1.5-3.6z"/><path class="a" d="m598.5 473.3q0 2.3-1.5 3.7-1.6 1.7-4.3 1.7-2.5 0-3.8-1.3-0.6-0.5-2.1-3.2l-16.4-27.6v31.5h-6.7v-33.5q0-5.8 5.7-5.8 2.7 0 4 1.2 0.7 0.7 2.2 3.2l16.2 27.6v-31.6h6.7z"/><path class="a" d="m34.4 560q0 4.6-2.7 6.9-2.9 2.6-7.8 2.6h-12.2q-5.7 0-8.7-2.2-2-1.5-2.6-3.6-0.4-1.2-0.4-4.3v-19.8q0-2.8 0.6-4.2 0.8-1.9 3-3.3 2.8-1.8 8.1-1.8h20.1v5.7h-18.6q-3.4 0-4.7 0.9-1.5 1-1.5 3.6v18.7q0 2.6 1.7 3.8 1.3 0.8 4.3 0.8h9.1q5.3 0 5.3-4.4v-11.6h7z"/><path class="a" d="m77.8 520l-5.3 7h-5.3l4.8-7zm7.9 49.5h-20q-5.2 0-8.1-2-3.2-2.2-3.2-6.4v-22.1q0-4.1 2.8-6.5 2.9-2.3 7.8-2.3h20.7v5.7h-18.2q-6.1 0-6.1 4.5v6.7h24.3v5.6h-24.3v6.6q0 4.5 6.2 4.5h18.1z"/><path fill-rule="evenodd" class="a" d="m139 560.6q0 8.9-11.6 8.9h-10.6q-5.5 0-8.3-1.9-3.3-2.4-3.3-6.9v-21.4q0-4.5 3.4-7 2.7-2 8.2-2h10.7q11.5 0 11.5 9zm-6.9-1.4v-18.3q0-2.7-1.5-3.8-1.4-1.1-4.7-1.1h-7.4q-3.4 0-4.8 1.1-1.5 1.1-1.5 3.8v18.1q0 2.5 1.6 3.7 1.3 1.1 4.7 1.1h7.4q3.2 0 4.7-1.1 1.5-1 1.5-3.5z"/><path class="a" d="m193.5 560q0 4.6-2.7 6.9-2.9 2.6-7.8 2.6h-12.2q-5.7 0-8.7-2.2-2-1.5-2.6-3.6-0.4-1.2-0.4-4.3v-19.8q0-2.8 0.6-4.2 0.8-1.9 3-3.3 2.8-1.8 8.1-1.8h20.1v5.7h-18.6q-3.4 0-4.7 0.9-1.5 1-1.5 3.6v18.7q0 2.6 1.7 3.8 1.3 0.8 4.3 0.8h9.1q5.3 0 5.3-4.4v-11.6h7z"/><path class="a" d="m247.9 569.5h-8.7l-17.2-15q-0.9-0.8-0.9-2.5 0-3.3 4.4-3.3l10.2-0.1q5.2 0 5.2-3.9v-4.5q0-4.1-5.8-4.1h-14.5v33.4h-7v-39.2h23.5q10.8 0 10.8 8.4v6.8q0 3.6-2.8 5.9-2.8 2.2-7.3 2.2h-8.1z"/><path fill-rule="evenodd" class="a" d="m305.5 569.5h-7.5l-4.2-9.6h-19.1l-4.2 9.6h-7.5l15.7-35.6q1.6-3.6 5.6-3.6 3.9 0 5.5 3.6zm-13.9-15l-7.7-17.5-6.9 17.5z"/><path fill-rule="evenodd" class="a" d="m356.1 546.3q0 4-2.7 6.2-2.8 2.3-7.7 2.3h-17.1v14.7h-7v-39.3h23.8q4.6 0 7.5 1.9 3.1 2.1 3.2 5.8 0 4 0 8.4zm-7-1.8v-4.7q0-3.9-5.6-3.9h-14.9v13h14.7q5.8 0 5.8-4.4z"/><path class="a" d="m411 569.5h-7v-16.7h-21.1v16.7h-7v-39.2h7v16.8h21.1v-16.8h7z"/><path class="a" d="m431 530.2h7v39.3h-7z"/><path fill-rule="evenodd" class="a" d="m492.2 560.9q0 6.9-7.1 8.4l6.9 6h-9.5l-6.9-5.7h-5.9q-5.5 0-8.2-1.7-3.4-2.3-3.4-7v-21.7q0-4.9 3.4-7.1 2.8-1.8 8.2-1.8h10.9q5.4 0 8.2 1.8 3.4 2.2 3.4 7.1zm-7-1.3v-18.9q0-2.7-1.5-3.7-1.5-1-4.9-1h-7.4q-3.3 0-4.8 1-1.5 1-1.5 3.7v18.6q0 2.7 1.6 3.7 1.3 0.9 4.7 0.9h7.4q3.3 0 4.9-0.9 1.5-0.9 1.5-3.4z"/><path class="a" d="m547 559.6q0.1 2.7-0.5 4.1-0.6 1.9-2.5 3.5-1.9 1.6-4 2-1.5 0.3-4.8 0.3h-11q-3.1 0-4.7-0.3-2.2-0.5-4-2-2-1.7-2.7-3.5-0.4-1.2-0.4-4.1v-29.3h7v28.3q0 3 1.5 4.1 1.4 1.1 5.2 1.1h7.2q3.8 0 5.3-1 1.4-1.1 1.4-4.1v-28.4h7z"/><path class="a" d="m597 552.8h-22.9v6.6q0 4.4 6.2 4.4h18.1v5.7h-20q-5.2 0-8.1-2-3.2-2.2-3.2-6.3v-22.1q0-4 2.8-6.4 2.9-2.3 7.8-2.3h20.7v5.7h-18.2q-6.1 0-6.1 4.3v6.7h22.9z"/><path class="a" d="m29.9 644.3h-22.9v6.6q0 4.4 6.1 4.4h18.2v5.7h-20q-5.2 0-8.1-2-3.2-2.2-3.2-6.3v-22.1q0-4.1 2.8-6.4 2.8-2.3 7.8-2.3h20.7v5.7h-18.2q-6.1 0-6.1 4.3v6.7h22.9z"/><path class="a" d="m80.2 627.4h-12v33.6h-7v-33.6h-11.9v-5.7h30.9z"/><path class="a" d="m161.5 644.3h-24.4v16.7h-7v-31.2q0-3.8 3.3-6.1 2.6-1.8 7.7-1.8h20.4v5.7h-18.5q-5.9 0-5.9 4v7.1h24.4z"/><path fill-rule="evenodd" class="a" d="m216.1 652.1q0 8.9-11.5 8.9h-10.6q-5.6 0-8.3-2-3.3-2.3-3.3-6.8v-21.4q0-4.5 3.3-7 2.7-2 8.3-2h10.7q11.4 0 11.4 9zm-6.9-1.4v-18.3q0-2.8-1.4-3.8-1.5-1.1-4.8-1.1h-7.4q-3.3 0-4.8 1.1-1.4 1-1.4 3.8v18.1q0 2.4 1.6 3.7 1.3 1 4.6 1h7.4q3.3 0 4.7-1 1.5-1 1.5-3.5z"/><path class="a" d="m270.4 661h-8.7l-17.2-15.1q-0.9-0.7-0.9-2.4 0-3.3 4.4-3.3l10.2-0.1q5.1 0 5.1-3.9v-4.5q0-4.2-5.8-4.1h-14.4v33.4h-7.1v-39.2h23.6q10.7 0 10.7 8.4v6.8q0 3.6-2.7 5.8-2.8 2.3-7.4 2.3h-8z"/><path class="a" d="m319.1 644.3h-22.8v6.6q0 4.4 6.1 4.4h18.1v5.7h-20q-5.2 0-8.1-2-3.2-2.2-3.2-6.3v-22.1q0-4.1 2.9-6.4 2.8-2.3 7.8-2.3h20.6v5.7h-18.2q-6 0-6 4.3v6.7h22.8z"/><path class="a" d="m371.9 627.5h-17.9q-4.4 0-5.5 1.8-0.7 1.1-0.7 5 0 2 1.7 3.2 1.4 0.9 4.5 0.9h7.4q4.8 0 7.6 2.1 2.9 2.1 2.9 5.9v6.2q0 4.1-3 6.2-2.9 2.2-8 2.2h-20v-5.7h18q4.4 0 5.5-2 0.5-1 0.5-5.3 0-4-5.8-4h-7.5q-4.6 0-7.5-1.9-3.3-2.2-3.3-5.9v-6.1q0-4.2 3.5-6.6 2.5-1.7 7.2-1.7h20.4z"/><path class="a" d="m419.9 627.4h-11.9v33.6h-7v-33.6h-12v-5.7h30.9z"/><path class="a" d="m436.4 621.7h7v39.3h-7z"/><path class="a" d="m486.5 618.6h-5.2l-5.3-7h5.8zm8 42.4h-20.1q-5.1 0-8-2.1-3.2-2.2-3.2-6.2v-22.2q0-4.1 2.8-6.4 2.8-2.4 7.8-2.4h20.7v5.8h-18.2q-6.1 0-6.1 4.4v6.7h24.3v5.6h-24.3v6.7q0 4.4 6.1 4.4h18.2z"/><path class="a" d="m548.1 661h-8.8l-17.1-15.1q-0.9-0.7-0.9-2.4 0-3.3 4.3-3.3l10.3-0.1q5.1 0 5.1-3.9v-4.5q0-4.2-5.8-4.1h-14.5v33.4h-7v-39.2h23.6q10.7 0 10.7 8.4v6.8q0 3.6-2.8 5.8-2.7 2.3-7.3 2.3h-8.1z"/><path class="a" d="m596.8 644.3h-22.9v6.6q0 4.4 6.2 4.4h18.1v5.7h-20q-5.2 0-8.1-2-3.2-2.2-3.2-6.3v-22.1q0-4.1 2.8-6.4 2.9-2.3 7.8-2.3h20.7v5.7h-18.2q-6.1 0-6.1 4.3v6.7h22.9z"/><path class="a" d="m0 347.2h7v39.4h-7z"/></svg>