<?xml version="1.0" encoding="UTF-8" standalone="no"?>
<svg
   xmlns:dc="http://purl.org/dc/elements/1.1/"
   xmlns:cc="http://creativecommons.org/ns#"
   xmlns:rdf="http://www.w3.org/1999/02/22-rdf-syntax-ns#"
   xmlns:svg="http://www.w3.org/2000/svg"
   xmlns="http://www.w3.org/2000/svg"
   width="141.16792"
   height="39.52"
   viewBox="0 0 141.16792 39.52"
   version="1.1"
   id="svg2042">
  <metadata
     id="metadata2048">
    <rdf:RDF>
      <cc:Work
         rdf:about="">
        <dc:format>image/svg+xml</dc:format>
        <dc:type
           rdf:resource="http://purl.org/dc/dcmitype/StillImage" />
        <dc:title></dc:title>
      </cc:Work>
    </rdf:RDF>
  </metadata>
  <defs
     id="defs2046" />
  <g
     id="logo"
     transform="translate(-221.466,-281.93)">
    <g
       id="Groupe_4362"
       data-name="Groupe 4362"
       transform="translate(221.467,281.93)">
      <path
         id="Tracé_1066"
         data-name="Tracé 1066"
         d="M 342.99992,321.45 H 241.1 c -10.83034,-0.0318 -19.60215,-8.80366 -19.634,-19.634 v -0.251 c 0.0313,-10.83073 8.80327,-19.60314 19.634,-19.635 h 101.89992 c 10.83034,0.0319 19.60215,8.80366 19.634,19.634 v 0.251 c -0.0313,10.83073 -8.80327,19.60314 -19.634,19.635"
         transform="translate(-221.467,-281.93)"
         fill="#373cf5" />
      <path
         id="Tracé_1067"
         data-name="Tracé 1067"
         d="m 294.755,330.432 a 11.869,11.869 0 0 0 11.856,11.856 11.736,11.736 0 0 0 7.288,-2.516 l -2.5,-2.793 a 8.11,8.11 0 1 1 -1.543,-13.958 l 1.491,-3.454 a 11.85,11.85 0 0 0 -16.592,10.865"
         transform="translate(-278.948,-310.673)"
         fill="#fff"
         style="fill:#f6f6ff;fill-opacity:1" />
      <path
         id="Tracé_1068"
         data-name="Tracé 1068"
         d="m 320.42,350.567 a 6.326,6.326 0 0 0 6.32,6.319 6.2,6.2 0 0 0 3.55,-1.126 c 0,0 -2.348,-2.619 -2.554,-2.843 a 2.625,2.625 0 0 1 -1,0.209 2.563,2.563 0 0 1 -2.561,-2.559 2.564,2.564 0 0 1 3.61,-2.371 l 1.484,-3.4 a 6.417,6.417 0 0 0 -2.533,-0.544 6.326,6.326 0 0 0 -6.32,6.318"
         transform="translate(-299.077,-330.808)"
         fill="#fff"
         style="fill:#f6f6ff;fill-opacity:1" />
      <path
         id="Tracé_1069"
         data-name="Tracé 1069"
         d="m 369.542,356.364 a 5.6,5.6 0 0 1 0.608,2.457 5.731,5.731 0 0 1 -1.166,3.323 l 2.537,2.8 a 9.046,9.046 0 0 0 2.387,-6.118 9.16,9.16 0 0 0 -0.955,-4.048 z"
         transform="translate(-337.166,-339.062)"
         fill="#fff"
         style="fill:#f6f6ff;fill-opacity:1" />
      <path
         id="Tracé_1070"
         data-name="Tracé 1070"
         d="m 366.617,332.042 6.437,-3.017 a 12.147,12.147 0 0 0 -3.573,-3.476 l -2.884,6.473 z"
         transform="translate(-335.294,-316.141)"
         fill="#fff"
         style="fill:#f6f6ff;fill-opacity:1" />
    </g>
  </g>
  <g
     aria-label="CCI ESSONNE"
     id="text2627"
     style="font-style:normal;font-variant:normal;font-weight:500;font-stretch:normal;font-size:13.8818px;line-height:1.25;font-family:Marlett;-inkscape-font-specification:'Marlett, Medium';font-variant-ligatures:normal;font-variant-caps:normal;font-variant-numeric:normal;font-feature-settings:normal;text-align:start;letter-spacing:0px;word-spacing:0px;writing-mode:lr-tb;text-anchor:start;fill:#ffffff;fill-opacity:1;stroke:none;stroke-width:0.347045"
     transform="translate(0.001)">
    <path
       d="m 50.089426,14.511041 q 0.902317,0 1.596407,0.263754 0.707972,0.263754 1.332653,0.791263 l -1.08278,1.291007 q -0.430336,-0.333163 -0.84679,-0.499745 -0.416454,-0.166581 -0.888435,-0.166581 -0.971726,0 -1.54088,0.819026 -0.555272,0.819026 -0.555272,2.526488 0,1.679697 0.555272,2.498723 0.569154,0.805145 1.568643,0.805145 0.527509,0 0.957845,-0.194345 0.430335,-0.208227 0.93008,-0.583036 l 1.013372,1.304889 q -0.541391,0.54139 -1.318771,0.888435 -0.763499,0.347045 -1.69358,0.347045 -1.332653,0 -2.31826,-0.583035 -0.985608,-0.583036 -1.54088,-1.721343 -0.54139,-1.15219 -0.54139,-2.762478 0,-1.568644 0.555272,-2.706951 0.569153,-1.138308 1.554761,-1.721344 0.99949,-0.596917 2.262733,-0.596917 z"
       style="font-style:normal;font-variant:normal;font-weight:bold;font-stretch:normal;font-family:'Fira Sans';-inkscape-font-specification:'Fira Sans Bold';fill:#ffffff;fill-opacity:1;stroke-width:0.347045"
       id="path2629" />
    <path
       d="m 57.793803,14.511041 q 0.902317,0 1.596407,0.263754 0.707972,0.263754 1.332653,0.791263 l -1.08278,1.291007 q -0.430336,-0.333163 -0.84679,-0.499745 -0.416454,-0.166581 -0.888435,-0.166581 -0.971726,0 -1.54088,0.819026 -0.555272,0.819026 -0.555272,2.526488 0,1.679697 0.555272,2.498723 0.569154,0.805145 1.568643,0.805145 0.527509,0 0.957844,-0.194345 0.430336,-0.208227 0.930081,-0.583036 l 1.013371,1.304889 q -0.54139,0.54139 -1.318771,0.888435 -0.763499,0.347045 -1.693579,0.347045 -1.332653,0 -2.318261,-0.583035 -0.985608,-0.583036 -1.54088,-1.721343 -0.54139,-1.15219 -0.54139,-2.762478 0,-1.568644 0.555272,-2.706951 0.569154,-1.138308 1.554762,-1.721344 0.999489,-0.596917 2.262733,-0.596917 z"
       style="font-style:normal;font-variant:normal;font-weight:bold;font-stretch:normal;font-family:'Fira Sans';-inkscape-font-specification:'Fira Sans Bold';fill:#ffffff;fill-opacity:1;stroke-width:0.347045"
       id="path2631" />
    <path
       d="m 64.123888,14.747032 v 9.620087 h -2.276615 v -9.620087 z"
       style="font-style:normal;font-variant:normal;font-weight:bold;font-stretch:normal;font-family:'Fira Sans';-inkscape-font-specification:'Fira Sans Bold';fill:#ffffff;fill-opacity:1;stroke-width:0.347045"
       id="path2633" />
    <path
       d="m 75.104374,14.747032 -0.235991,1.62417 h -3.387159 v 2.304379 h 2.956823 v 1.596407 h -2.956823 v 2.457078 h 3.62315 v 1.638053 h -5.899765 v -9.620087 z"
       style="font-style:normal;font-variant:normal;font-weight:bold;font-stretch:normal;font-family:'Fira Sans';-inkscape-font-specification:'Fira Sans Bold';fill:#ffffff;fill-opacity:1;stroke-width:0.347045"
       id="path2635" />
    <path
       d="m 79.463243,14.511041 q 1.08278,0 1.874043,0.3054 0.805144,0.305399 1.457589,0.93008 l -1.055017,1.23548 q -0.985608,-0.805144 -2.110034,-0.805144 -0.596917,0 -0.943962,0.249872 -0.347045,0.235991 -0.347045,0.69409 0,0.319282 0.1527,0.527509 0.152699,0.194345 0.54139,0.374808 0.38869,0.180464 1.166071,0.430336 1.471471,0.471981 2.165561,1.166071 0.69409,0.680209 0.69409,1.943452 0,0.902317 -0.4581,1.596407 -0.458099,0.680208 -1.318771,1.068899 -0.860671,0.374808 -2.040624,0.374808 -1.179953,0 -2.096152,-0.374808 -0.902317,-0.374809 -1.554761,-0.99949 l 1.152189,-1.263244 q 0.555272,0.471982 1.138307,0.707972 0.596918,0.235991 1.291008,0.235991 0.707972,0 1.110544,-0.3054 0.416454,-0.319281 0.416454,-0.874553 0,-0.360927 -0.1527,-0.596917 -0.1527,-0.249873 -0.527508,-0.444218 -0.374809,-0.194345 -1.082781,-0.416454 -1.596407,-0.485863 -2.276615,-1.193835 -0.666326,-0.707972 -0.666326,-1.790752 0,-0.832908 0.444217,-1.457589 0.444218,-0.638563 1.23548,-0.971726 0.791263,-0.347045 1.790753,-0.347045 z"
       style="font-style:normal;font-variant:normal;font-weight:bold;font-stretch:normal;font-family:'Fira Sans';-inkscape-font-specification:'Fira Sans Bold';fill:#ffffff;fill-opacity:1;stroke-width:0.347045"
       id="path2637" />
    <path
       d="m 87.250892,14.511041 q 1.08278,0 1.874043,0.3054 0.805144,0.305399 1.457589,0.93008 l -1.055017,1.23548 q -0.985608,-0.805144 -2.110034,-0.805144 -0.596917,0 -0.943962,0.249872 -0.347045,0.235991 -0.347045,0.69409 0,0.319282 0.1527,0.527509 0.1527,0.194345 0.54139,0.374808 0.38869,0.180464 1.166071,0.430336 1.471471,0.471981 2.165561,1.166071 0.69409,0.680209 0.69409,1.943452 0,0.902317 -0.458099,1.596407 -0.4581,0.680208 -1.318771,1.068899 -0.860672,0.374808 -2.040625,0.374808 -1.179953,0 -2.096152,-0.374808 -0.902317,-0.374809 -1.554761,-0.99949 l 1.152189,-1.263244 q 0.555272,0.471982 1.138308,0.707972 0.596917,0.235991 1.291007,0.235991 0.707972,0 1.110544,-0.3054 0.416454,-0.319281 0.416454,-0.874553 0,-0.360927 -0.1527,-0.596917 -0.1527,-0.249873 -0.527508,-0.444218 -0.374809,-0.194345 -1.082781,-0.416454 -1.596407,-0.485863 -2.276615,-1.193835 -0.666326,-0.707972 -0.666326,-1.790752 0,-0.832908 0.444217,-1.457589 0.444218,-0.638563 1.235481,-0.971726 0.791262,-0.347045 1.790752,-0.347045 z"
       style="font-style:normal;font-variant:normal;font-weight:bold;font-stretch:normal;font-family:'Fira Sans';-inkscape-font-specification:'Fira Sans Bold';fill:#ffffff;fill-opacity:1;stroke-width:0.347045"
       id="path2639" />
    <path
       d="m 95.982523,14.511041 q 2.054506,0 3.192814,1.318771 1.152193,1.318771 1.152193,3.720322 0,1.568644 -0.527512,2.706951 -0.513627,1.138308 -1.499234,1.749107 -0.971726,0.596917 -2.318261,0.596917 -1.346535,0 -2.31826,-0.596917 -0.971726,-0.596917 -1.499235,-1.721343 -0.513626,-1.138308 -0.513626,-2.734715 0,-1.554761 0.513626,-2.693069 0.527509,-1.138307 1.499235,-1.735225 0.971725,-0.610799 2.31826,-0.610799 z m 0,1.665816 q -0.985608,0 -1.471471,0.805144 -0.471981,0.791263 -0.471981,2.568133 0,1.776871 0.485863,2.582015 0.485863,0.805144 1.457589,0.805144 0.99949,0 1.471471,-0.791262 0.485863,-0.805144 0.485863,-2.595897 0,-1.790752 -0.485863,-2.582014 -0.485863,-0.791263 -1.471471,-0.791263 z"
       style="font-style:normal;font-variant:normal;font-weight:bold;font-stretch:normal;font-family:'Fira Sans';-inkscape-font-specification:'Fira Sans Bold';fill:#ffffff;fill-opacity:1;stroke-width:0.347045"
       id="path2641" />
    <path
       d="m 109.10082,24.367119 h -2.90129 l -2.77636,-7.454527 q 0.13882,1.096663 0.20822,1.943452 0.0833,0.832908 0.0833,1.985098 v 3.525977 h -2.02675 v -9.620087 h 2.83189 l 2.84577,7.468408 q -0.3054,-1.901807 -0.3054,-3.581504 v -3.886904 h 2.04062 z"
       style="font-style:normal;font-variant:normal;font-weight:bold;font-stretch:normal;font-family:'Fira Sans';-inkscape-font-specification:'Fira Sans Bold';fill:#ffffff;fill-opacity:1;stroke-width:0.347045"
       id="path2643" />
    <path
       d="m 118.30443,24.367119 h -2.90129 l -2.77636,-7.454527 q 0.13881,1.096663 0.20822,1.943452 0.0833,0.832908 0.0833,1.985098 v 3.525977 h -2.02674 v -9.620087 h 2.83189 l 2.84577,7.468408 q -0.3054,-1.901807 -0.3054,-3.581504 v -3.886904 h 2.04062 z"
       style="font-style:normal;font-variant:normal;font-weight:bold;font-stretch:normal;font-family:'Fira Sans';-inkscape-font-specification:'Fira Sans Bold';fill:#ffffff;fill-opacity:1;stroke-width:0.347045"
       id="path2645" />
    <path
       d="m 125.99492,14.747032 -0.23599,1.62417 h -3.38716 v 2.304379 h 2.95683 v 1.596407 h -2.95683 v 2.457078 h 3.62315 v 1.638053 h -5.89976 v -9.620087 z"
       style="font-style:normal;font-variant:normal;font-weight:bold;font-stretch:normal;font-family:'Fira Sans';-inkscape-font-specification:'Fira Sans Bold';fill:#ffffff;fill-opacity:1;stroke-width:0.347045"
       id="path2647" />
  </g>
</svg>
